<svg id="_レイヤー_2" data-name="レイヤー 2" xmlns="http://www.w3.org/2000/svg" viewBox="0 0 113 131"><defs><style>.cls-1{fill:#fff}</style></defs><g id="_레이어_1" data-name="레이어 1"><path style="fill:#4369b1" d="M3.39 3.75H107v109.13H3.39z"/><path d="M49.52 12.89c-10.96 15-25.32 15.94-27.32 15.97v12.76s1.25.02 10.2.05c5.88.02 5.8 5.85 5.8 5.85v59.37h69.01v-94H49.52Z" style="fill:#9ca3ab"/><path class="cls-1" d="M107.21 24.9c-6-4.75-10.98-5.91-20.03-5.91-11.21 0-20.48 4.2-23.74 10.39-3.55 6.75-4.23 10.71-4.23 21.7v2.81h24v-8.38c0-3.6.69-10.24 5.67-10.24s5.45 4.57 4.68 10.47c-.47 3.59-3.9 10.41-6.05 13.93-2.6 4.24-19.3 31.18-27.3 42.86v4.36h46.52l-1.39-6.62-15.96-.43c4.89-7.68 15.83-24.74 17.83-29.52V24.9Z"/><path d="M105 0H8C4.13 0 0 4.16 0 8.06v114.88c0 3.9 4.13 8.06 8 8.06h97c3.87 0 8-4.17 8-8.06V8.06c0-3.9-4.13-8.06-8-8.06m.99 98.47c0 3.34-2.69 6.05-6 6.05H13.01c-3.31 0-6-2.71-6-6.05V12.81c0-3.34 2.69-6.05 6-6.05h86.98c3.31 0 6 2.71 6 6.05v85.66Z" style="fill:#231f20"/><path class="cls-1" d="M16.62 111.4v12.35h-2.46v-7.68c0-.38-.02-.66-.06-.85a.74.74 0 0 0-.25-.43c-.16-.12-.38-.21-.66-.25-.27-.05-.7-.07-1.28-.07h-.37v-1.11c.87-.14 1.61-.37 2.22-.7.61-.32 1.15-.74 1.62-1.26h1.24ZM28 122.16v1.59h-8.35v-1.78c.68-.88 1.43-1.75 2.27-2.6.84-.85 1.53-1.52 2.06-1.99.54-.47 1-.96 1.39-1.48.39-.52.59-1 .59-1.45 0-.63-.15-1.08-.46-1.35-.31-.26-.84-.4-1.58-.4-.66 0-1.15.14-1.44.43-.3.29-.45.72-.45 1.29v1.18h-2.38v-.48c0-1.28.31-2.26.94-2.94.63-.68 1.69-1.02 3.18-1.02s2.58.3 3.38.89c.8.59 1.2 1.37 1.2 2.34 0 .63-.16 1.23-.49 1.79-.32.56-.72 1.04-1.17 1.46-.45.42-1.14 1.06-2.06 1.92-.92.87-1.77 1.73-2.55 2.61H28Zm7.92-11.19v4.57c0 1.6.32 3.07.96 4.43.57 1.2 1.26 2.05 2.06 2.54l-1.61 1.01c-.61-.44-1.15-1-1.62-1.69-.51-.75-.88-1.54-1.12-2.4-.22.85-.59 1.65-1.12 2.4-.49.69-1.05 1.25-1.68 1.69l-1.48-1.01c.75-.53 1.4-1.37 1.97-2.54.7-1.39 1.05-2.87 1.05-4.43v-4.57h2.59Zm6.17-.11v13.65h-2.55v-6.96h-1.85v-1.6h1.85v-5.09h2.55Zm3.83 13.65h-2.55v-13.65h2.55v13.65Zm12.4-11.85c.79 1.14 1.19 2.6 1.19 4.37 0 1.87-.4 3.4-1.19 4.57-.84 1.28-2.01 1.92-3.53 1.92s-2.71-.64-3.56-1.92c-.78-1.17-1.17-2.7-1.17-4.57 0-1.77.39-3.23 1.17-4.37.86-1.25 2.05-1.87 3.56-1.87s2.68.63 3.53 1.87m-5.15 1.02c-.34.86-.51 1.97-.51 3.34 0 1.48.17 2.66.51 3.56.37.96.91 1.45 1.61 1.45s1.22-.48 1.59-1.45c.35-.9.52-2.08.52-3.56 0-1.36-.17-2.48-.52-3.34-.38-.94-.91-1.4-1.59-1.4s-1.22.47-1.61 1.4m11.06 10.83h-2.59v-13.65h2.59v13.65Zm5.47-9.75c-.34-.36-.51-.74-.51-1.15 0-.79.56-1.44 1.68-1.97 1.23-.57 2.93-.85 5.08-.85s3.84.29 5.08.85c1.13.53 1.7 1.19 1.7 1.97 0 .4-.18.79-.52 1.15-.37.37-.9.69-1.57.96v1.46h2.88v1.55H68.39v-1.55h2.85v-1.46c-.68-.27-1.19-.6-1.54-.96m11.13 5.61c1.1.5 1.64 1.12 1.64 1.86s-.55 1.33-1.64 1.83c-1.21.56-2.84.84-4.89.84s-3.7-.28-4.91-.84c-1.08-.5-1.62-1.11-1.62-1.83s.54-1.36 1.62-1.86c1.21-.56 2.85-.84 4.91-.84s3.68.28 4.89.84m-7.95-7.64c-.68.23-1.01.52-1.01.88s.34.64 1.01.86c.73.25 1.75.37 3.04.37s2.31-.12 3.06-.37c.68-.23 1.01-.52 1.01-.86s-.34-.65-1.01-.88c-.74-.24-1.76-.36-3.06-.36s-2.31.12-3.04.36m.09 8.72c-.65.21-.98.46-.98.76s.33.56.98.77c.73.23 1.73.35 2.99.35s2.2-.12 2.92-.35c.66-.21 1-.47 1-.77s-.33-.56-1-.76c-.72-.23-1.69-.34-2.92-.34s-2.25.11-2.99.34m5.08-4.26v-.88c-.3.04-.64.07-1 .1-.33.02-.69.03-1.1.03s-.79 0-1.12-.03c-.37-.03-.71-.06-1.01-.1v.88h4.23Zm17.28-6.05v4.23c0 2.02-.65 3.72-1.96 5.09-1.21 1.26-3.01 2.27-5.4 3.05l-1.03-1.16c1.75-.61 3.1-1.38 4.07-2.32 1.17-1.13 1.75-2.48 1.75-4.07v-3.28h-5.4v-1.55h7.97Zm5.8-.28v5.53h1.76v1.56h-1.76v6.56h-2.59v-13.65h2.59Z"/></g></svg>