<svg id="_レイヤー_2" data-name="レイヤー 2" xmlns="http://www.w3.org/2000/svg" viewBox="0 0 113 131"><defs><style>.cls-1{fill:#fff}</style></defs><g id="_레이어_1" data-name="레이어 1"><path style="fill:#44a342" d="M3.39 3.75H107v109.13H3.39z"/><path class="cls-1" d="m87.4 105.89-12.51-93H33.28l-11.89 93.06 27.81-.18v-6.89h10v7h28.19Zm-37.44-25 4.13-39.11 4.14 39.11h-8.27Z"/><path style="fill:#9ca3ab" d="M77.21 86.89v-23h-13v33h20v-10h-7z"/><path class="cls-1" d="M100.21 86.89v-23h-14v33h21v-10h-7z"/><path d="M105 0H8C4.13 0 0 4.16 0 8.06v114.88c0 3.9 4.13 8.06 8 8.06h97c3.87 0 8-4.17 8-8.06V8.06c0-3.9-4.13-8.06-8-8.06m.99 98.47c0 3.34-2.69 6.05-6 6.05H13.01c-3.31 0-6-2.71-6-6.05V12.81c0-3.34 2.69-6.05 6-6.05h86.98c3.31 0 6 2.71 6 6.05v85.66Z" style="fill:#231f20"/><path class="cls-1" d="M22.35 111.14v1.53h-3.37c0 1.34.45 2.51 1.36 3.49.72.77 1.7 1.41 2.94 1.91l-1.17 1.22c-.91-.36-1.75-.77-2.52-1.25-.84-.52-1.47-1.04-1.9-1.56-.41.51-1.03 1.03-1.87 1.56-.77.47-1.59.89-2.48 1.25l-1.05-1.22c1.21-.48 2.16-1.12 2.85-1.91.84-.96 1.26-2.13 1.26-3.49h-3.2v-1.53h9.15Zm-5.73 11.69h10.5v1.53h-10.8c-.83 0-1.42-.12-1.78-.36-.34-.23-.51-.62-.51-1.15v-2.9h2.58v2.87ZM27 120.82h-2.59v-5.15h-2.85v-1.54h2.85v-3.26H27v9.96Zm6.43-8.7v-1.33h2.58v1.33h2.45v1.52h-2.45v2.2c0 1.64.3 3.06.91 4.27.5 1.01 1.19 1.82 2.06 2.43l-1.59.98c-.66-.46-1.21-.99-1.62-1.59-.52-.72-.88-1.56-1.07-2.51-.22.96-.6 1.81-1.14 2.53-.47.61-1.05 1.13-1.76 1.58l-1.41-.98c.91-.6 1.62-1.4 2.13-2.41.61-1.18.91-2.61.91-4.29v-2.2h-2.41v-1.52h2.41Zm3.77 5.51v-1.49h2.11v-5.28h2.58v13.65h-2.58v-6.89H37.2Zm8.63 6.89h-2.59v-13.65h2.59v13.65Zm12.41-11.86c.79 1.14 1.19 2.6 1.19 4.37 0 1.87-.4 3.4-1.19 4.57-.84 1.28-2.02 1.92-3.53 1.92s-2.71-.64-3.56-1.92c-.78-1.17-1.17-2.7-1.17-4.57 0-1.77.39-3.23 1.17-4.37.86-1.25 2.05-1.87 3.56-1.87s2.68.63 3.53 1.87m-5.15 1.02c-.34.86-.51 1.97-.51 3.34 0 1.48.17 2.66.51 3.56.37.96.91 1.45 1.61 1.45s1.22-.48 1.59-1.45c.35-.9.52-2.08.52-3.56 0-1.36-.18-2.48-.52-3.34-.39-.94-.92-1.4-1.59-1.4s-1.22.47-1.61 1.4m11.06 10.83h-2.59v-13.65h2.59v13.65Zm5.47-9.75c-.34-.36-.51-.74-.51-1.15 0-.79.56-1.44 1.68-1.98 1.23-.57 2.93-.85 5.08-.85s3.84.28 5.08.85c1.13.53 1.7 1.19 1.7 1.98 0 .4-.18.79-.52 1.15-.37.37-.9.69-1.57.96v1.46h2.88v1.55H68.31v-1.55h2.85v-1.46c-.68-.27-1.19-.6-1.54-.96m11.13 5.61c1.1.5 1.64 1.12 1.64 1.86s-.55 1.33-1.64 1.83c-1.21.56-2.84.84-4.89.84s-3.7-.28-4.91-.84c-1.08-.5-1.62-1.11-1.62-1.83s.54-1.36 1.62-1.86c1.21-.56 2.85-.84 4.91-.84s3.68.28 4.89.84m-7.95-7.64c-.68.23-1.01.52-1.01.88s.34.64 1.01.86c.73.25 1.75.37 3.04.37s2.31-.12 3.06-.37c.67-.23 1.01-.52 1.01-.86s-.34-.65-1.01-.88c-.75-.24-1.76-.36-3.06-.36s-2.31.12-3.04.36m.09 8.72c-.65.21-.98.46-.98.77s.32.56.98.77c.73.23 1.73.35 2.99.35s2.2-.12 2.92-.35c.66-.21 1-.46 1-.77s-.33-.56-1-.77c-.72-.23-1.69-.34-2.92-.34s-2.25.11-2.99.34m5.08-4.26v-.88c-.3.04-.64.07-1 .1-.33.02-.69.03-1.1.03s-.79 0-1.12-.03c-.37-.03-.71-.06-1.01-.1v.88h4.23Zm17.28-6.05v4.23c0 2.02-.65 3.72-1.96 5.09-1.21 1.26-3.01 2.27-5.4 3.05l-1.03-1.16c1.75-.61 3.1-1.38 4.07-2.32 1.17-1.13 1.75-2.48 1.75-4.07v-3.28h-5.4v-1.55h7.97Zm5.8-.28v5.53h1.77v1.56h-1.77v6.56h-2.59v-13.65h2.59Z"/></g></svg>